<svg width="20" height="20" viewBox="0 0 20 20" fill="none" xmlns="http://www.w3.org/2000/svg">
<path d="M10.0003 1.6665C5.40533 1.6665 1.66699 5.40484 1.66699 9.99984V13.4523C1.66699 14.3057 2.41449 14.9998 3.33366 14.9998H4.16699C4.38801 14.9998 4.59997 14.912 4.75625 14.7558C4.91253 14.5995 5.00033 14.3875 5.00033 14.1665V9.88067C5.00033 9.65966 4.91253 9.4477 4.75625 9.29141C4.59997 9.13513 4.38801 9.04734 4.16699 9.04734H3.41033C3.87366 5.82234 6.64866 3.33317 10.0003 3.33317C13.352 3.33317 16.127 5.82234 16.5903 9.04734H15.8337C15.6126 9.04734 15.4007 9.13513 15.2444 9.29141C15.0881 9.4477 15.0003 9.65966 15.0003 9.88067V14.9998C15.0003 15.919 14.2528 16.6665 13.3337 16.6665H11.667V15.8332H8.33366V18.3332H13.3337C15.172 18.3332 16.667 16.8382 16.667 14.9998C17.5862 14.9998 18.3337 14.3057 18.3337 13.4523V9.99984C18.3337 5.40484 14.5953 1.6665 10.0003 1.6665Z" fill="#F8F8F8"/>
</svg>
