<svg width="20" height="20" viewBox="0 0 20 20" fill="none" xmlns="http://www.w3.org/2000/svg">
<path d="M8.75 15H10.625V16.25H8.75V15ZM10.625 13.75H11.875V15H10.625V13.75ZM10.625 11.25H11.875V12.5H10.625V11.25Z" fill="#F8F8F8"/>
<path d="M10 1.25C8.26942 1.25 6.57769 1.76318 5.13876 2.72464C3.69983 3.6861 2.57832 5.05267 1.91606 6.65152C1.25379 8.25037 1.08051 10.0097 1.41813 11.707C1.75575 13.4044 2.58911 14.9635 3.81282 16.1872C5.03653 17.4109 6.59563 18.2442 8.29296 18.5819C9.9903 18.9195 11.7496 18.7462 13.3485 18.0839C14.9473 17.4217 16.3139 16.3002 17.2754 14.8612C18.2368 13.4223 18.75 11.7306 18.75 10C18.7474 7.68017 17.8246 5.45611 16.1843 3.81574C14.5439 2.17537 12.3198 1.25265 10 1.25ZM9.62313 2.51875L11.19 5.65375L10.2019 8.125H6.41875L5.5375 10.8669L7.32 12.6494L6.69063 13.5944L3.92875 11.875H2.74688C2.46271 10.7984 2.42315 9.67181 2.63111 8.57791C2.83906 7.48401 3.28926 6.45055 3.94867 5.55331C4.60808 4.65607 5.45998 3.91783 6.44188 3.39274C7.42378 2.86764 8.51078 2.56901 9.62313 2.51875ZM3.19125 13.125H3.57125L6.03063 14.6556C6.30598 14.8287 6.63813 14.887 6.95598 14.8182C7.27382 14.7494 7.55211 14.5589 7.73125 14.2875L8.36125 13.3425C8.52086 13.1019 8.59248 12.8136 8.56401 12.5262C8.53554 12.2389 8.40872 11.9702 8.205 11.7656L6.96188 10.5225L7.33063 9.375H10.2019C10.4519 9.37587 10.6963 9.30137 10.9034 9.16123C11.1104 9.02109 11.2704 8.82181 11.3625 8.58938L12.3506 6.11875C12.4163 5.95482 12.4465 5.77884 12.4393 5.60239C12.4321 5.42595 12.3876 5.25303 12.3088 5.095L11.0525 2.5825C12.2092 2.74309 13.3121 3.17243 14.2729 3.83611C15.2337 4.4998 16.0257 5.37936 16.5853 6.40428C17.1449 7.42921 17.4566 8.57099 17.4954 9.7381C17.5342 10.9052 17.2991 12.0652 16.8088 13.125H14.375C14.0436 13.1253 13.7258 13.2571 13.4915 13.4915C13.2571 13.7258 13.1253 14.0436 13.125 14.375V16.8087C12.2314 17.2225 11.2647 17.4554 10.2807 17.4941C9.29663 17.5327 8.31468 17.3763 7.39133 17.0339C6.46798 16.6916 5.62147 16.1699 4.90054 15.4991C4.1796 14.8282 3.59848 14.0214 3.19063 13.125H3.19125ZM14.375 16.0794V14.375H16.0794C15.6062 15.0308 15.0308 15.6062 14.375 16.0794Z" fill="#F8F8F8"/>
</svg>
