<svg width="20" height="20" viewBox="0 0 20 20" fill="none" xmlns="http://www.w3.org/2000/svg">
<path d="M19.0603 9.12711L16.5625 6.90684V3.49113L13.6964 0.625H6.9375C6.38522 0.625 5.9375 1.07272 5.9375 1.625V5.625H3.125C2.87645 5.62529 2.63816 5.72415 2.46241 5.89991C2.28665 6.07566 2.18779 6.31395 2.1875 6.5625V18.4375C2.18779 18.6861 2.28665 18.9243 2.46241 19.1001C2.63816 19.2758 2.87645 19.3747 3.125 19.375H18.375C18.9273 19.375 19.375 18.9273 19.375 18.375V9.82785C19.3749 9.69546 19.3469 9.56458 19.2926 9.44381C19.2384 9.32304 19.1592 9.21511 19.0603 9.12711ZM5.9375 18.125H3.4375V6.875H5.9375V18.125ZM12.8125 1.875H13.1786L15.3125 4.00887V4.375H12.8125V1.875ZM7.1875 1.875H11.5625V4.625C11.5625 5.17728 12.0102 5.625 12.5625 5.625H15.3125V8.4375H7.1875V1.875ZM18.125 18.125H7.1875V9.6875H15.5625C16.1148 9.6875 16.5625 9.23979 16.5625 8.6875V8.57926L18.125 9.9682V18.125Z" fill="#F8F8F8"/>
<path d="M9.0625 13.4375H10.3125V14.6875H9.0625V13.4375ZM11.5625 13.4375H12.8125V14.6875H11.5625V13.4375ZM9.0625 15.9375H10.3125V17.1875H9.0625V15.9375ZM11.5625 15.9375H12.8125V17.1875H11.5625V15.9375ZM14.0625 13.4375H15.3125V14.6875H14.0625V13.4375ZM14.0625 15.9375H15.3125V17.1875H14.0625V15.9375ZM9.0625 10.9375H15.3125V12.1875H9.0625V10.9375Z" fill="#F8F8F8"/>
</svg>
