<svg width="54" height="40" viewBox="0 0 54 40" fill="none" xmlns="http://www.w3.org/2000/svg">
<path opacity="0.3" d="M0 40V28.1155C0 24.7409 0.672268 21.293 2.01681 17.7717C3.36134 14.2503 5.13539 10.9308 7.33893 7.81293C9.54248 4.69509 11.9328 2.09078 14.5098 0L25.042 6.10729C22.9505 9.33517 21.2325 12.7098 19.888 16.2311C18.5808 19.7524 17.9272 23.6772 17.9272 28.0055V40H0ZM28.2913 40V28.1155C28.2913 24.7409 28.9636 21.293 30.3081 17.7717C31.6527 14.2503 33.4267 10.9308 35.6303 7.81293C37.8338 4.69509 40.2241 2.09078 42.8011 0L53.3333 6.10729C51.2418 9.33517 49.5238 12.7098 48.1793 16.2311C46.8721 19.7524 46.2185 23.6772 46.2185 28.0055V40H28.2913Z" fill="#C0C0C0"/>
</svg>
