<svg width="24" height="23" viewBox="0 0 24 23" fill="none" xmlns="http://www.w3.org/2000/svg">
<path d="M0.888672 1H4.88867L7.56867 14.39C7.66012 14.8504 7.91058 15.264 8.27622 15.5583C8.64185 15.8526 9.09937 16.009 9.56867 16H19.2887C19.758 16.009 20.2155 15.8526 20.5811 15.5583C20.9468 15.264 21.1972 14.8504 21.2887 14.39L22.8887 6H5.88867M9.88867 21C9.88867 21.5523 9.44096 22 8.88867 22C8.33639 22 7.88867 21.5523 7.88867 21C7.88867 20.4477 8.33639 20 8.88867 20C9.44096 20 9.88867 20.4477 9.88867 21ZM20.8887 21C20.8887 21.5523 20.441 22 19.8887 22C19.3364 22 18.8887 21.5523 18.8887 21C18.8887 20.4477 19.3364 20 19.8887 20C20.441 20 20.8887 20.4477 20.8887 21Z" stroke="white" stroke-width="1.5" stroke-linecap="round" stroke-linejoin="round"/>
</svg>
