<svg width="40" height="40" viewBox="0 0 40 40" fill="none" xmlns="http://www.w3.org/2000/svg">
<path d="M33.5915 28.9737C33.3322 32.3445 30.48 35.0239 27.1092 35.0239C24.3434 35.0239 21.8369 33.2952 20.9726 30.6159C20.7997 30.1837 20.1083 30.1837 20.0219 30.6159C19.244 33.4681 16.651 35.456 13.7988 35.456C10.1687 35.456 7.23007 32.5174 7.3165 28.8873C7.3165 25.5164 9.90943 22.7507 13.1938 22.4914C13.626 22.4914 13.9717 22.0592 13.9717 21.627C13.626 17.9105 16.4782 14.4533 20.454 14.4533C24.257 14.4533 27.0228 17.5648 26.9363 21.1949C26.9363 21.627 27.2821 21.9728 27.7142 22.0592C31.1715 22.3185 33.8508 25.3436 33.5915 28.9737ZM27.5414 23.7878C26.1585 23.7014 25.1213 22.4914 25.1213 21.1085C25.2077 18.5155 23.2198 16.2683 20.3676 16.2683C17.5154 16.2683 15.441 18.7748 15.7003 21.4542C15.8732 22.9235 14.7496 24.1335 13.2802 24.3064C10.8602 24.4793 9.04512 26.5536 8.95869 28.9737C8.95869 31.5666 11.033 33.7274 13.7124 33.7274C15.7867 33.7274 17.6882 32.3445 18.2932 30.2701C18.5525 29.233 19.5033 28.5415 20.5404 28.5415C21.4912 28.5415 22.3555 29.1465 22.7012 30.0973C23.3927 31.9988 25.1213 33.2952 27.1956 33.2952C29.7021 33.2952 31.7765 31.3938 31.8629 28.8873C32.0358 26.2943 30.0479 24.0471 27.5414 23.7878ZM27.1092 35.3696C24.1705 35.3696 21.5776 33.5545 20.6269 30.7887C20.6269 30.7023 20.454 30.6159 20.454 30.6159C20.454 30.6159 20.2811 30.6159 20.2811 30.7887C19.5033 33.7274 16.7375 35.8017 13.7124 35.8017C11.8973 35.8017 10.1687 35.1103 8.87226 33.8138C7.57579 32.5174 6.88435 30.7887 6.88435 28.9737C6.88435 27.2451 7.57579 25.6893 8.6994 24.3928C9.823 23.1828 11.3788 22.4049 13.1074 22.2321C13.2802 22.2321 13.3667 22.1456 13.4531 22.0592C13.5395 21.9728 13.5395 21.8863 13.5395 21.7135C13.3667 19.812 13.9717 17.9105 15.3546 16.4412C16.651 14.9719 18.4661 14.194 20.3676 14.194C22.2691 14.194 23.9977 14.8854 25.2941 16.2683C26.5906 17.5648 27.2821 19.3798 27.1956 21.2813C27.1956 21.5406 27.3685 21.7999 27.6278 21.7999C29.3564 21.9728 30.9986 22.7507 32.2086 24.1335C33.4187 25.5164 34.0237 27.2451 33.8508 29.0601C33.678 32.5174 30.7393 35.3696 27.1092 35.3696ZM27.7142 22.3185C27.1092 22.2321 26.677 21.7999 26.677 21.1085C26.7635 19.3798 26.072 17.8241 24.9484 16.6141C23.8248 15.404 22.1826 14.7126 20.5404 14.7126C18.8118 14.7126 17.1696 15.404 15.9596 16.7005C14.7496 17.9969 14.1445 19.7256 14.3174 21.4542C14.3174 21.7135 14.231 22.0592 14.0581 22.2321C13.8853 22.4914 13.5395 22.5778 13.2802 22.6642C10.1687 22.9235 7.66222 25.6029 7.66222 28.8008C7.66222 30.443 8.26724 31.9988 9.47727 33.2088C10.6873 34.4188 12.2431 35.0239 13.8853 35.0239C16.651 35.0239 19.0711 33.1224 19.849 30.5294C19.9354 30.1837 20.2811 29.9244 20.6269 29.9244C20.9726 29.9244 21.3183 30.0973 21.4048 30.443C22.2691 32.9495 24.6027 34.5917 27.2821 34.5917C30.5664 34.5917 33.2458 32.0852 33.4187 28.8008C33.5051 25.6029 30.9986 22.6642 27.7142 22.3185ZM27.1092 33.5545C24.9484 33.5545 23.0469 32.1716 22.3555 30.1837C22.0962 29.4058 21.3183 28.8008 20.454 28.8008C19.5897 28.8008 18.8118 29.4058 18.5525 30.2701C17.9475 32.4309 15.9596 33.9867 13.7124 33.9867C12.3295 33.9867 11.1195 33.4681 10.1687 32.5174C9.21798 31.5666 8.6994 30.2701 8.6994 28.8873C8.6994 26.2943 10.7737 24.1335 13.2802 23.9607C13.8853 23.8743 14.4903 23.615 14.836 23.1828C15.1817 22.7507 15.441 22.1456 15.3546 21.5406C15.2682 20.1577 15.7003 18.7748 16.651 17.6512C17.6018 16.6141 18.8983 16.009 20.3676 16.009C21.7505 16.009 23.0469 16.5276 23.9977 17.4784C24.9484 18.4291 25.467 19.812 25.3806 21.1949C25.3806 22.4049 26.2449 23.4421 27.4549 23.5285C30.1343 23.7878 32.2086 26.2079 32.0358 28.8873C31.9493 31.4802 29.7886 33.5545 27.1092 33.5545ZM27.5414 24.1335C25.9856 23.9607 24.7756 22.6642 24.862 21.1085C24.862 19.8984 24.4298 18.7748 23.652 17.9105C22.7876 17.0462 21.664 16.6141 20.454 16.6141C19.244 16.6141 18.1204 17.1326 17.2561 17.9969C16.3918 18.9477 15.9596 20.1577 16.1325 21.3678C16.2189 22.1456 15.9596 22.9235 15.441 23.5285C14.9224 24.1335 14.231 24.4793 13.4531 24.5657C11.2059 24.7386 9.47727 26.64 9.47727 28.8873C9.47727 30.0973 9.90943 31.2209 10.7737 31.9988C11.638 32.8631 12.6752 33.2952 13.8853 33.2952C15.8732 33.2952 17.6018 31.9988 18.1204 30.0973C18.4661 28.9737 19.5033 28.1958 20.6269 28.1958C21.7505 28.1958 22.7012 28.8873 23.1334 30.0109C23.7384 31.8259 25.3806 32.9495 27.2821 32.9495C29.6157 32.9495 31.5172 31.1345 31.69 28.8008C31.69 26.4672 29.875 24.3064 27.5414 24.1335ZM18.7254 11.4282C18.4661 13.1568 16.8239 14.2804 15.0953 14.0211C13.3667 13.7618 12.2431 12.1196 12.5888 10.391C12.8481 9.00812 14.5767 5.37802 16.5646 5.72375C18.639 6.06947 18.9847 10.0453 18.7254 11.4282ZM16.3053 7.45237C15.6139 7.71166 14.5767 9.69957 14.4038 10.6503C14.3174 11.3418 14.7496 12.1196 15.5274 12.2061C16.2189 12.2925 16.9968 11.8603 17.0832 11.0825C17.1696 10.1317 16.8239 7.97095 16.3053 7.45237ZM19.0711 11.5146C18.8118 13.1568 17.3425 14.3668 15.7003 14.3668C15.5274 14.3668 15.2682 14.3668 15.0953 14.2804C13.1938 13.9347 11.8973 12.2061 12.2431 10.3046C12.3295 9.61314 12.8481 8.31668 13.626 7.19307C14.5767 5.81018 15.6139 5.20516 16.651 5.37802C17.6882 5.55088 18.4661 6.50163 18.8118 8.05738C19.1575 9.35385 19.244 10.7367 19.0711 11.5146ZM16.5646 5.98304C14.7496 5.63732 13.1074 9.18099 12.9345 10.391C12.6752 11.9468 13.7124 13.4161 15.1817 13.6754C16.7375 13.9347 18.2068 12.8975 18.4661 11.3418C18.7254 9.95887 18.2068 6.32876 16.5646 5.98304ZM16.651 12.2925C16.3918 12.4654 16.046 12.6382 15.7003 12.6382C15.6139 12.6382 15.5274 12.6382 15.441 12.6382C14.9224 12.4654 14.5767 12.2061 14.3174 11.8603C14.0581 11.5146 13.9717 10.996 14.0581 10.5639C14.231 9.52671 15.3546 7.45237 16.2189 7.19307L16.3918 7.10664L16.5646 7.19307C17.2561 7.79809 17.6018 10.1317 17.4289 11.1689C17.2561 11.6011 16.9968 12.0332 16.651 12.2925ZM16.2189 7.88452C15.7003 8.31668 14.836 9.87243 14.6631 10.6503C14.5767 10.9096 14.6631 11.1689 14.836 11.4282C15.0089 11.6875 15.1817 11.8603 15.5274 11.8603C15.7867 11.9468 16.046 11.8603 16.3053 11.6875C16.4782 11.6011 16.651 11.3418 16.651 11.0825C16.8239 10.2182 16.5646 8.48954 16.2189 7.88452ZM25.8127 14.0211C24.0841 14.2804 22.4419 13.1568 22.1826 11.4282C21.9233 10.0453 22.3555 6.06947 24.3434 5.72375C26.4177 5.37802 28.1464 9.00812 28.3192 10.391C28.665 12.0332 27.5414 13.6754 25.8127 14.0211ZM24.6891 7.45237C24.1705 7.88452 23.8248 10.1317 23.9977 11.0825C24.0841 11.8603 24.862 12.2925 25.5534 12.2061C26.2449 12.1196 26.7635 11.3418 26.677 10.6503C26.4177 9.69957 25.2941 7.71166 24.6891 7.45237ZM25.8992 14.2804C25.7263 14.2804 25.467 14.3668 25.2941 14.3668C23.652 14.3668 22.1826 13.1568 21.9233 11.5146C21.8369 10.8232 21.8369 9.35385 22.1826 8.14381C22.6148 6.50163 23.3927 5.63732 24.3434 5.46445C25.2941 5.20516 26.3313 5.81018 27.2821 7.19307C28.0599 8.23025 28.4921 9.52671 28.665 10.3046C29.0107 12.2061 27.7142 13.9347 25.8992 14.2804ZM28.0599 10.391C27.8871 9.786 27.4549 8.57597 26.7635 7.5388C26.3313 6.84735 25.3806 5.81018 24.4298 5.98304C22.6148 6.32876 22.2691 10.1317 22.5284 11.3418C22.7876 12.8975 24.257 13.9347 25.8127 13.6754C27.2821 13.4161 28.3192 11.9468 28.0599 10.391ZM25.5534 12.5518C25.467 12.5518 25.3806 12.5518 25.2941 12.5518C24.5163 12.5518 23.8248 11.9468 23.652 11.1689C23.4791 10.1317 23.8248 7.79809 24.5163 7.19307L24.6891 7.10664L24.862 7.19307C25.6399 7.5388 26.8499 9.61314 27.0228 10.5639C27.1092 10.996 27.0228 11.4282 26.7635 11.7739C26.3313 12.2061 25.9856 12.4654 25.5534 12.5518ZM24.7756 7.88452C24.4298 8.48954 24.1705 10.2182 24.257 11.0825C24.3434 11.6011 24.862 12.0332 25.467 11.9468C25.7263 11.8603 25.9856 11.7739 26.1585 11.5146C26.3313 11.2553 26.4177 10.996 26.3313 10.7367C26.1585 9.87243 25.2941 8.40311 24.7756 7.88452ZM9.21798 20.417C7.48936 20.417 6.10647 19.0341 6.10647 17.3055C6.10647 15.9226 7.14364 12.0332 9.21798 12.0332C11.2923 12.0332 12.3295 15.9226 12.3295 17.3055C12.3295 19.0341 10.9466 20.417 9.21798 20.417ZM9.21798 13.8483C8.61296 14.194 7.83509 16.3548 7.83509 17.3055C7.83509 18.0834 8.4401 18.6884 9.21798 18.6884C9.99586 18.6884 10.6009 18.0834 10.6009 17.3055C10.6009 16.2683 9.823 14.194 9.21798 13.8483ZM9.21798 20.7627C7.3165 20.7627 5.76074 19.207 5.76074 17.3055C5.76074 16.5276 6.02004 15.2312 6.62505 14.0211C7.3165 12.5518 8.26724 11.6875 9.30441 11.6875C10.3416 11.6875 11.2059 12.4654 11.8973 13.9347C12.4159 15.1447 12.7617 16.4412 12.7617 17.2191C12.6752 19.207 11.1195 20.7627 9.21798 20.7627ZM9.21798 12.3789C7.40293 12.3789 6.36576 16.0955 6.36576 17.3055C6.36576 18.8613 7.66222 20.1577 9.21798 20.1577C10.7737 20.1577 12.0702 18.8613 12.0702 17.3055C12.0702 15.8362 10.9466 12.3789 9.21798 12.3789ZM9.21798 18.9477C8.26724 18.9477 7.57579 18.1698 7.57579 17.3055C7.57579 16.2683 8.35367 14.0211 9.04512 13.589L9.21798 13.5025L9.39084 13.589C10.1687 14.0211 10.8602 16.2683 10.8602 17.3055C10.8602 18.1698 10.1687 18.9477 9.21798 18.9477ZM9.21798 14.2804C8.78583 14.799 8.18081 16.4412 8.18081 17.3055C8.18081 17.9105 8.61296 18.3427 9.21798 18.3427C9.823 18.3427 10.2552 17.9105 10.2552 17.3055C10.2552 16.4412 9.65014 14.799 9.21798 14.2804ZM31.69 20.417C29.9614 20.417 28.5785 19.0341 28.5785 17.3055C28.5785 15.9226 29.6157 12.0332 31.69 12.0332C33.7644 12.0332 34.8016 15.9226 34.8016 17.3055C34.8016 19.0341 33.4187 20.417 31.69 20.417ZM31.69 13.8483C31.085 14.194 30.3071 16.3548 30.3071 17.3055C30.3071 18.0834 30.9122 18.6884 31.69 18.6884C32.4679 18.6884 33.0729 18.0834 33.0729 17.3055C33.0729 16.2683 32.2951 14.194 31.69 13.8483ZM31.69 20.7627C29.7886 20.7627 28.2328 19.207 28.2328 17.3055C28.2328 16.5276 28.4921 15.2312 29.0107 14.0211C29.7021 12.5518 30.6529 11.6875 31.69 11.6875C32.7272 11.6875 33.5915 12.4654 34.283 13.9347C34.8016 15.1447 35.1473 16.4412 35.1473 17.2191C35.1473 19.207 33.5915 20.7627 31.69 20.7627ZM31.69 12.3789C29.875 12.3789 28.8378 16.0955 28.8378 17.3055C28.8378 18.8613 30.1343 20.1577 31.69 20.1577C33.2458 20.1577 34.5423 18.8613 34.5423 17.3055C34.5423 15.8362 33.4187 12.3789 31.69 12.3789ZM31.69 18.9477C30.7393 18.9477 30.0479 18.1698 30.0479 17.3055C30.0479 16.2683 30.8257 14.0211 31.5172 13.589L31.69 13.5025L31.8629 13.589C32.6408 14.0211 33.3322 16.2683 33.3322 17.3055C33.3322 18.1698 32.6408 18.9477 31.69 18.9477ZM31.69 14.2804C31.2579 14.799 30.6529 16.4412 30.6529 17.3055C30.6529 17.9105 31.085 18.3427 31.69 18.3427C32.2951 18.3427 32.7272 17.9105 32.7272 17.3055C32.7272 16.4412 32.1222 14.799 31.69 14.2804Z" fill="#212121"/>
</svg>
