<svg width="40" height="40" viewBox="0 0 40 40" fill="none" xmlns="http://www.w3.org/2000/svg">
<path d="M35.4458 16.5675L32.5003 19.608L33.0704 23.7887C33.1654 24.4538 32.6904 25.0239 32.1203 25.1189L28.7947 25.689V38.6111C28.7947 38.9912 28.6047 39.3713 28.2246 39.6563C27.8446 39.8463 27.4645 39.8463 27.0844 39.7513L20.6234 36.5208L14.1623 39.7513C13.9723 39.8463 13.7822 39.8463 13.5922 39.8463C13.4022 39.8463 13.1171 39.7513 12.9271 39.6563C12.6421 39.3713 12.357 38.9912 12.357 38.6111V25.689L9.03147 25.1189C8.36636 25.0239 7.98629 24.4538 8.08131 23.7887L8.6514 19.608L5.70592 16.5675C5.23084 16.0924 5.23084 15.3323 5.70592 14.9522L8.6514 11.9117L8.08131 7.63603C7.98629 6.97092 8.46137 6.40083 9.03147 6.30581L13.2122 5.54569L15.2075 1.84008C15.4925 1.26998 16.2527 1.07995 16.8228 1.365L20.6234 3.1703L24.424 1.365C24.9941 1.07995 25.6592 1.26998 25.9443 1.84008L27.9396 5.54569L32.1203 6.30581C32.7854 6.40083 33.1654 6.97092 33.0704 7.63603L32.5003 11.8167L35.4458 14.8572C35.9209 15.3323 35.9209 16.0924 35.4458 16.5675ZM14.8274 36.6158L20.0533 33.9554C20.4333 33.7653 20.8134 33.7653 21.0985 33.9554L26.3243 36.6158V28.7295L25.9443 29.4896C25.7542 29.8697 25.2791 30.1547 24.8991 30.1547C24.709 30.1547 24.519 30.1547 24.329 30.0597L20.5284 28.2544L16.7277 30.0597C16.1576 30.3448 15.3975 30.1547 15.1125 29.5846L14.7324 28.8245V36.6158H14.8274ZM30.41 13.0519C30.1249 12.7669 30.0299 12.3868 30.1249 12.0068L30.6 8.39616L26.9894 7.73105C26.6094 7.63603 26.3243 7.446 26.1343 7.16095L24.424 3.93042L21.0985 5.54569C20.7184 5.73572 20.3383 5.73572 20.0533 5.54569L16.7277 3.93042L15.0175 7.16095C14.9224 7.54102 14.5424 7.73105 14.2573 7.82606L10.6467 8.49117L11.1218 12.1018C11.2168 12.4818 11.0268 12.8619 10.8368 13.1469L8.27134 15.8074L10.8368 18.4678C11.1218 18.7529 11.2168 19.1329 11.1218 19.513L10.6467 23.1236L14.2573 23.7887C14.6374 23.8837 14.9224 24.0737 15.1125 24.3588L16.8228 27.5893L20.1483 25.9741C20.2433 25.689 20.4333 25.689 20.6234 25.689C20.8134 25.689 21.0034 25.689 21.1935 25.784L24.519 27.3993L26.2293 24.1688C26.4193 23.8837 26.7044 23.5987 27.0844 23.5987L30.695 22.9336L30.22 19.323C30.1249 18.9429 30.315 18.5628 30.505 18.2778L33.0704 15.6173L30.41 13.0519ZM20.6234 23.8837C16.0626 23.8837 12.452 20.1781 12.452 15.7124C12.452 11.2466 16.1576 7.54102 20.6234 7.54102C25.1841 7.54102 28.7947 11.2466 28.7947 15.7124C28.7947 20.1781 25.0891 23.8837 20.6234 23.8837ZM20.6234 9.91641C17.3928 9.91641 14.8274 12.4818 14.8274 15.7124C14.8274 18.9429 17.3928 21.5083 20.6234 21.5083C23.8539 21.5083 26.4193 18.9429 26.4193 15.7124C26.4193 12.4818 23.7589 9.91641 20.6234 9.91641ZM24.7091 14.3821L20.3383 18.7529C20.1483 18.9429 19.7682 19.1329 19.4832 19.1329C19.1981 19.1329 18.9131 19.0379 18.628 18.7529L16.4427 16.5675C15.9676 16.0924 15.9676 15.3323 16.4427 14.8572C16.9178 14.3821 17.6779 14.3821 18.153 14.8572L19.4832 16.1874L22.9988 12.6719C23.4738 12.1968 24.234 12.1968 24.7091 12.6719C25.1841 13.1469 25.1841 13.9071 24.7091 14.3821Z" fill="#212121"/>
</svg>
