<svg width="40" height="40" viewBox="0 0 40 40" fill="none" xmlns="http://www.w3.org/2000/svg">
<path d="M31.7549 35.5435H9.84293C8.37638 35.5435 7.2549 34.422 7.2549 32.9555V8.28288C7.2549 6.81633 8.37638 5.69485 9.84293 5.69485H31.6687C33.1352 5.69485 34.2567 6.81633 34.2567 8.28288V32.9555C34.343 34.422 33.1352 35.5435 31.7549 35.5435ZM32.6176 8.28288C32.6176 7.76527 32.2725 7.4202 31.7549 7.4202H9.84293C9.32532 7.4202 8.98025 7.76527 8.98025 8.28288V11.7336H32.5314V8.28288H32.6176ZM32.6176 13.4589H8.98025V32.9555C8.98025 33.4731 9.32532 33.8181 9.84293 33.8181H31.6687C32.1863 33.8181 32.5314 33.4731 32.5314 32.9555V13.4589H32.6176ZM31.7549 35.8023H9.84293C8.29011 35.8023 6.99609 34.5083 6.99609 32.9555V8.28288C6.99609 6.64379 8.29011 5.34978 9.84293 5.34978H31.6687C33.2215 5.34978 34.5155 6.64379 34.5155 8.19661V32.8692C34.6018 34.5083 33.3078 35.8023 31.7549 35.8023ZM33.9979 8.28288C33.9979 6.98886 32.9627 5.95365 31.6687 5.95365H9.84293C8.54891 5.95365 7.5137 6.98886 7.5137 8.28288V32.9555C7.5137 34.2495 8.54891 35.2847 9.84293 35.2847H31.6687C32.9627 35.2847 33.9979 34.2495 33.9979 32.9555V8.28288ZM31.7549 34.0769H9.84293C9.23906 34.0769 8.72145 33.5593 8.72145 32.9555V13.1139H32.8764V32.9555C32.8764 33.5593 32.3588 34.0769 31.7549 34.0769ZM32.2725 13.7177H9.32532V32.9555C9.32532 33.3005 9.58413 33.5593 9.9292 33.5593H31.7549C32.1 33.5593 32.3588 33.3005 32.3588 32.9555V13.7177H32.2725ZM8.72145 8.28288C8.72145 7.67901 9.23906 7.1614 9.84293 7.1614H31.6687C32.2725 7.1614 32.7902 7.67901 32.7902 8.28288V11.9924H8.63518V8.28288H8.72145ZM9.32532 11.3885H32.2725V8.28288C32.2725 7.93781 32.0137 7.67901 31.6687 7.67901H9.84293C9.49786 7.67901 9.23906 7.93781 9.23906 8.28288V11.3885H9.32532ZM26.5789 10.4396H24.8535C24.3359 10.4396 23.9908 10.0945 23.9908 9.5769C23.9908 9.05929 24.3359 8.71422 24.8535 8.71422H26.5789C27.0965 8.71422 27.4416 9.05929 27.4416 9.5769C27.4416 10.0082 27.0102 10.4396 26.5789 10.4396ZM26.5789 10.6984H24.8535C24.2496 10.6984 23.732 10.1808 23.732 9.5769C23.732 8.97302 24.2496 8.45542 24.8535 8.45542H26.5789C27.1827 8.45542 27.7004 8.97302 27.7004 9.5769C27.7004 10.1808 27.1827 10.6984 26.5789 10.6984ZM26.5789 8.97302H24.8535C24.5084 8.97302 24.2496 9.23183 24.2496 9.5769C24.2496 9.92197 24.5084 10.1808 24.8535 10.1808H26.5789C26.9239 10.1808 27.1827 9.92197 27.1827 9.5769C27.0965 9.23183 26.8377 8.97302 26.5789 8.97302ZM31.1511 10.4396H29.4257C28.9081 10.4396 28.563 10.0945 28.563 9.5769C28.563 9.05929 28.9081 8.71422 29.4257 8.71422H31.1511C31.6687 8.71422 32.0137 9.05929 32.0137 9.5769C32.0137 10.0082 31.6687 10.4396 31.1511 10.4396ZM31.1511 10.6984H29.4257C28.8218 10.6984 28.3042 10.1808 28.3042 9.5769C28.3042 8.97302 28.8218 8.45542 29.4257 8.45542H31.1511C31.7549 8.45542 32.2725 8.97302 32.2725 9.5769C32.2725 10.1808 31.7549 10.6984 31.1511 10.6984ZM31.1511 8.97302H29.4257C29.0806 8.97302 28.8218 9.23183 28.8218 9.5769C28.8218 9.92197 29.0806 10.1808 29.4257 10.1808H31.1511C31.4961 10.1808 31.7549 9.92197 31.7549 9.5769C31.7549 9.23183 31.4961 8.97302 31.1511 8.97302ZM20.7989 31.9202C16.2267 31.9202 12.431 28.2107 12.431 23.5523C12.431 23.2935 12.431 23.1209 12.431 22.8621C12.776 18.5487 16.3993 15.1843 20.7127 15.1843C25.1123 15.1843 28.6493 18.5487 28.9944 22.8621C28.9944 23.1209 28.9944 23.2935 28.9944 23.5523C29.1669 28.2107 25.3711 31.9202 20.7989 31.9202ZM20.7989 16.9959C17.607 16.9959 14.9327 19.2389 14.3289 22.2583C14.9327 22.4308 15.2778 22.6033 15.6229 22.8621C16.0542 23.1209 16.313 23.2935 17.0032 23.2935C17.6933 23.2935 18.0384 23.1209 18.3834 22.8621C18.901 22.5171 19.5049 22.172 20.7127 22.172C21.9204 22.172 22.5243 22.6033 23.0419 22.8621C23.4732 23.1209 23.732 23.2935 24.4222 23.2935C25.1123 23.2935 25.4574 23.1209 25.8025 22.8621C26.1475 22.6896 26.5789 22.4308 27.0965 22.2583C26.6651 19.3252 23.9908 16.9959 20.7989 16.9959ZM26.8377 24.3287C26.3201 24.6738 25.7162 25.0188 24.5084 25.0188C23.3007 25.0188 22.6968 24.5875 22.1792 24.3287C21.7479 24.0699 21.4891 23.8973 20.7989 23.8973C20.1088 23.8973 19.7637 24.0699 19.4187 24.3287C18.901 24.6738 18.2972 25.0188 17.0894 25.0188C15.8817 25.0188 15.2778 24.5875 14.7602 24.3287C14.5877 24.2424 14.4151 24.0699 14.2426 24.0699C14.5014 27.5206 17.3482 30.1949 20.7989 30.1949C24.2496 30.1949 27.1827 27.4343 27.3553 24.0699C27.1827 24.1561 27.0102 24.2424 26.8377 24.3287ZM20.7989 32.2653C16.0542 32.2653 12.1722 28.3833 12.1722 23.6385C12.1722 23.3797 12.1722 23.2072 12.1722 22.9484C12.3447 20.7917 13.2936 18.8075 14.9327 17.341C16.5718 15.8744 18.6422 15.0118 20.7989 15.0118C22.9556 15.0118 25.0261 15.7882 26.6651 17.341C28.218 18.8075 29.2532 20.7917 29.4257 22.9484C29.4257 23.2072 29.4257 23.3797 29.4257 23.6385C29.4257 28.3833 25.5437 32.2653 20.7989 32.2653ZM28.8218 22.9484C28.4768 18.8075 24.9398 15.5294 20.7989 15.5294C16.6581 15.5294 13.1211 18.8075 12.776 22.9484C12.776 23.1209 12.776 23.3797 12.776 23.5523C12.776 27.9519 16.3993 31.5752 20.7989 31.5752C25.1986 31.5752 28.8218 27.9519 28.8218 23.5523C28.8218 23.3797 28.8218 23.2072 28.8218 22.9484ZM20.7989 30.54C17.1757 30.54 14.1563 27.6931 13.8975 24.0699V23.6385L14.3289 23.8111C14.5014 23.8973 14.7602 23.9836 14.9327 24.1561C15.4503 24.5012 15.9679 24.8463 17.0894 24.8463C18.2109 24.8463 18.7285 24.5012 19.2461 24.1561C19.6775 23.8973 20.0225 23.6385 20.7989 23.6385C21.5753 23.6385 21.9204 23.8973 22.3518 24.1561C22.8694 24.5012 23.387 24.8463 24.5084 24.8463C25.6299 24.8463 26.1475 24.5012 26.6651 24.1561C26.8377 24.0699 27.0102 23.8973 27.269 23.8111L27.7004 23.6385V24.0699C27.4416 27.6931 24.4222 30.54 20.7989 30.54ZM27.0102 24.5875C26.4926 24.9326 25.8025 25.3639 24.5084 25.3639C23.2144 25.3639 22.5243 24.9326 22.0067 24.5875C21.5753 24.3287 21.3165 24.1561 20.7127 24.1561C20.1088 24.1561 19.85 24.3287 19.4187 24.5875C18.901 24.9326 18.2109 25.3639 16.9169 25.3639C15.6229 25.3639 14.9327 24.9326 14.4151 24.5875C14.8465 27.6069 17.5208 29.9361 20.6264 29.9361C23.9046 29.9361 26.5789 27.6069 27.0102 24.5875ZM26.1475 23.1209C25.7162 23.3797 25.3711 23.6385 24.5947 23.6385C23.8183 23.6385 23.4732 23.3797 23.0419 23.1209C22.5243 22.7759 22.0067 22.4308 20.8852 22.4308C19.7637 22.4308 19.2461 22.7759 18.7285 23.1209C18.2972 23.3797 17.9521 23.6385 17.1757 23.6385C16.3993 23.6385 16.0542 23.3797 15.6229 23.1209C15.2778 22.9484 14.9327 22.6896 14.4151 22.6033L14.1563 22.5171L14.2426 22.2583C14.9327 19.0664 17.7796 16.7371 20.9715 16.7371C24.2496 16.7371 27.0965 19.0664 27.7004 22.2583L27.7866 22.5171L27.5278 22.6033C26.8377 22.6896 26.4063 22.9484 26.1475 23.1209ZM20.7989 17.341C17.8658 17.341 15.3641 19.3252 14.6739 22.0857C15.1915 22.2583 15.5366 22.4308 15.7954 22.6033C16.2267 22.8621 16.4855 23.0347 17.0894 23.0347C17.6933 23.0347 17.9521 22.8621 18.3834 22.6033C18.901 22.2583 19.5912 21.8269 20.8852 21.8269C22.1792 21.8269 22.8694 22.2583 23.387 22.6033C23.8183 22.8621 24.0771 23.0347 24.681 23.0347C25.2849 23.0347 25.5437 22.8621 25.975 22.6033C26.2338 22.4308 26.6651 22.172 27.0965 22.0857C26.2338 19.3252 23.732 17.341 20.7989 17.341Z" fill="#212121"/>
</svg>
