<svg width="18" height="18" viewBox="0 0 18 18" fill="none" xmlns="http://www.w3.org/2000/svg">
<circle cx="9" cy="9" r="8.5" stroke="#457E80"/>
<path d="M9.542 11.308H8.226V10.636C8.226 10.3933 8.24933 10.174 8.296 9.978C8.34267 9.782 8.408 9.60467 8.492 9.446C8.58533 9.28733 8.69267 9.138 8.814 8.998C8.94467 8.84867 9.08933 8.69933 9.248 8.55L9.766 8.06C9.97133 7.88267 10.1393 7.69133 10.27 7.486C10.41 7.27133 10.48 7.00067 10.48 6.674C10.48 6.226 10.3353 5.87133 10.046 5.61C9.766 5.33933 9.402 5.204 8.954 5.204C8.48733 5.204 8.114 5.35333 7.834 5.652C7.554 5.95067 7.39067 6.31467 7.344 6.744L6 6.59C6.056 6.18867 6.17267 5.82933 6.35 5.512C6.52733 5.18533 6.74667 4.91 7.008 4.686C7.27867 4.462 7.58667 4.294 7.932 4.182C8.27733 4.06067 8.646 4 9.038 4C9.43 4 9.794 4.056 10.13 4.168C10.4753 4.28 10.7787 4.448 11.04 4.672C11.3013 4.88667 11.5067 5.15733 11.656 5.484C11.8053 5.80133 11.88 6.17 11.88 6.59C11.88 6.88867 11.8473 7.15 11.782 7.374C11.7167 7.598 11.6233 7.80333 11.502 7.99C11.39 8.16733 11.25 8.33533 11.082 8.494C10.914 8.65267 10.732 8.816 10.536 8.984C10.3493 9.14267 10.1907 9.28733 10.06 9.418C9.92933 9.53933 9.82667 9.66533 9.752 9.796C9.67733 9.92667 9.62133 10.0713 9.584 10.23C9.556 10.3887 9.542 10.5847 9.542 10.818V11.308ZM9.892 13.282C9.892 13.5247 9.80333 13.7393 9.626 13.926C9.44867 14.1127 9.22467 14.206 8.954 14.206C8.69267 14.206 8.46867 14.1173 8.282 13.94C8.10467 13.7533 8.016 13.5387 8.016 13.296C8.016 13.044 8.10467 12.8293 8.282 12.652C8.45933 12.4653 8.68333 12.372 8.954 12.372C9.22467 12.372 9.44867 12.4607 9.626 12.638C9.80333 12.8153 9.892 13.03 9.892 13.282Z" fill="#457E80"/>
</svg>
