<svg width="77" height="20" viewBox="0 0 77 20" fill="none" xmlns="http://www.w3.org/2000/svg">
<path d="M13.5257 5.96615C13.6882 4.66276 13.5257 3.79384 12.8739 2.98698C12.167 2.11806 10.9176 1.68359 9.34246 1.68359H4.72398C4.45237 1.68359 4.1268 1.99393 4.07166 2.30426L2.17041 16.0829C2.17041 16.3312 2.33349 16.6415 2.6051 16.6415H5.43027L5.26719 18.0069C5.21264 18.2552 5.37572 18.4414 5.59278 18.4414H7.98384C8.25603 18.4414 8.52706 18.2552 8.58161 17.9449V17.7587L9.07027 14.5313V14.4072C9.12483 14.0968 9.39644 13.8485 9.66804 13.8485H9.99479C12.3302 13.8485 14.1234 12.7934 14.6667 9.6901C14.9383 8.38673 14.8304 7.3316 14.178 6.5868C14.0149 6.33855 13.7428 6.15235 13.5257 5.96615Z" fill="#009CDE"/>
<path d="M13.5257 5.96615C13.6882 4.66276 13.5257 3.79384 12.8739 2.98698C12.167 2.11806 10.9176 1.68359 9.34246 1.68359H4.72398C4.45237 1.68359 4.1268 1.99393 4.07166 2.30426L2.17041 16.0829C2.17041 16.3312 2.33349 16.6415 2.6051 16.6415H5.43027L6.19112 11.4901L6.13657 11.6763C6.19113 11.3038 6.46272 11.0556 6.78831 11.0556H8.14635C10.809 11.0556 12.8739 9.81424 13.5257 6.33855C13.4717 6.15235 13.5257 6.09028 13.5257 5.96615Z" fill="#012169"/>
<path d="M6.89799 5.96615C6.95139 5.77995 7.0605 5.59375 7.22358 5.46962C7.33152 5.46962 7.38608 5.40756 7.49461 5.40756H11.0806C11.5159 5.40756 11.9494 5.46962 12.2767 5.53168C12.3847 5.53168 12.4938 5.53168 12.6023 5.59375C12.7109 5.65582 12.8194 5.65582 12.8739 5.71788C12.9279 5.71788 12.9818 5.71788 13.037 5.71788C13.1995 5.77995 13.3626 5.90408 13.5257 5.96615C13.6882 4.66276 13.5257 3.79384 12.8739 2.92492C12.2217 2.05599 10.9727 1.68359 9.39644 1.68359H4.72398C4.45237 1.68359 4.1268 1.93186 4.07166 2.30426L2.17041 16.0829C2.17041 16.3312 2.33349 16.6415 2.6051 16.6415H5.43027L6.19112 11.4901L6.89799 5.96615Z" fill="#003087"/>
<path d="M26.211 3.76562H21.803C21.5204 3.76562 21.2378 3.99063 21.1813 4.27188L19.4294 15.5219C19.3729 15.7469 19.5424 15.9156 19.7685 15.9156H21.8595C22.142 15.9156 22.4246 15.6906 22.4811 15.4094L22.9332 12.3719C22.9897 12.0906 23.2158 11.8656 23.5548 11.8656H24.9677C27.8498 11.8656 29.5452 10.4594 29.9973 7.70312C30.1669 6.52188 29.9973 5.56563 29.4322 4.89062C28.8105 4.15938 27.6803 3.76562 26.211 3.76562ZM26.7196 7.87188C26.4935 9.44686 25.2502 9.44686 24.12 9.44686H23.4418L23.8939 6.52188C23.8939 6.35313 24.0635 6.24063 24.233 6.24063H24.5156C25.3067 6.24063 26.0414 6.24062 26.437 6.69062C26.7196 6.91562 26.8326 7.30938 26.7196 7.87188Z" fill="#003087"/>
<path d="M39.3222 7.81543H37.2312C37.0616 7.81543 36.8921 7.92793 36.8921 8.09668L36.7791 8.65918L36.6096 8.43418C36.1575 7.75918 35.1403 7.53418 34.123 7.53418C31.8059 7.53418 29.828 9.27793 29.4324 11.7529C29.2064 12.9905 29.4889 14.1717 30.2237 14.9592C30.8453 15.6905 31.8059 16.028 32.8797 16.028C34.7446 16.028 35.8184 14.8467 35.8184 14.8467L35.7053 15.4092C35.6489 15.6342 35.8184 15.8592 36.0444 15.8592H37.9659C38.2484 15.8592 38.531 15.6342 38.5875 15.353L39.7178 8.15293C39.7743 8.04043 39.5483 7.81543 39.3222 7.81543ZM36.44 11.8654C36.2139 13.0467 35.3098 13.8905 34.0665 13.8905C33.4449 13.8905 32.9927 13.7217 32.6536 13.328C32.3146 12.9342 32.2016 12.428 32.3146 11.8654C32.4841 10.6842 33.5013 9.84043 34.6881 9.84043C35.3098 9.84043 35.7619 10.0654 36.101 10.4029C36.3835 10.7967 36.4966 11.3029 36.44 11.8654Z" fill="#003087"/>
<path d="M50.5681 7.81543H48.4771C48.2511 7.81543 48.0814 7.92793 47.9684 8.09668L45.0297 12.3717L43.7865 8.26543C43.73 7.98418 43.4475 7.81543 43.2214 7.81543H41.1305C40.9044 7.81543 40.6783 8.04043 40.7913 8.32168L43.1084 15.128L40.9044 18.1655C40.7348 18.3905 40.9044 18.728 41.1869 18.728H43.2779C43.5039 18.728 43.6734 18.6155 43.7865 18.4467L50.8506 8.32168C51.0201 8.15293 50.8506 7.81543 50.5681 7.81543Z" fill="#003087"/>
<path d="M57.5757 3.76562H53.1677C52.8851 3.76562 52.6026 3.99063 52.5461 4.27188L50.7941 15.4656C50.7377 15.6906 50.9072 15.8594 51.1332 15.8594H53.3938C53.6198 15.8594 53.7894 15.6906 53.7894 15.5219L54.298 12.3156C54.3544 12.0344 54.5805 11.8094 54.9196 11.8094H56.3325C59.2146 11.8094 60.91 10.4031 61.3621 7.64688C61.5316 6.46563 61.3621 5.50938 60.7969 4.83438C60.1187 4.15938 59.0451 3.76562 57.5757 3.76562ZM58.0843 7.87188C57.8583 9.44688 56.615 9.44688 55.4848 9.44688H54.8066L55.2587 6.52188C55.2587 6.35313 55.4282 6.24063 55.5978 6.24063H55.8803C56.6715 6.24063 57.4061 6.24062 57.8018 6.69062C58.0843 6.91562 58.1408 7.30938 58.0843 7.87188Z" fill="#009CDE"/>
<path d="M70.6869 7.81543H68.5959C68.4264 7.81543 68.2568 7.92793 68.2568 8.09668L68.1438 8.65918L67.9743 8.43418C67.5222 7.75918 66.505 7.53418 65.4878 7.53418C63.1707 7.53418 61.1928 9.27793 60.7971 11.7529C60.5712 12.9905 60.8537 14.1717 61.5884 14.9592C62.21 15.6905 63.1707 16.028 64.2445 16.028C66.1094 16.028 67.1832 14.8467 67.1832 14.8467L67.0701 15.4092C67.0136 15.6342 67.1832 15.8592 67.4091 15.8592H69.3306C69.6131 15.8592 69.8958 15.6342 69.9522 15.353L71.0825 8.15293C71.0825 8.04043 70.913 7.81543 70.6869 7.81543ZM67.7482 11.8654C67.5222 13.0467 66.618 13.8905 65.3747 13.8905C64.7531 13.8905 64.301 13.7217 63.9619 13.328C63.6229 12.9342 63.5098 12.428 63.6229 11.8654C63.7924 10.6842 64.8096 9.84043 65.9964 9.84043C66.618 9.84043 67.0701 10.0654 67.4091 10.4029C67.7482 10.7967 67.8613 11.3029 67.7482 11.8654Z" fill="#009CDE"/>
<path d="M73.1733 4.04688L71.365 15.4656C71.3084 15.6906 71.478 15.8594 71.704 15.8594H73.5124C73.7949 15.8594 74.0776 15.6344 74.134 15.3531L75.9425 4.15938C75.9989 3.93438 75.8294 3.76562 75.6034 3.76562H73.569C73.3429 3.76562 73.2299 3.87812 73.1733 4.04688Z" fill="#009CDE"/>
</svg>
