<svg width="12" height="15" viewBox="0 0 12 15" fill="none" xmlns="http://www.w3.org/2000/svg">
<path d="M3.18965 5.48276C3.18965 5.7589 3.41351 5.98276 3.68965 5.98276C3.9658 5.98276 4.18965 5.7589 4.18965 5.48276H3.18965ZM8.12069 5.48276C8.12069 5.7589 8.34454 5.98276 8.62069 5.98276C8.89683 5.98276 9.12069 5.7589 9.12069 5.48276H8.12069ZM1.09676 12.9115L0.598723 12.8672L1.09676 12.9115ZM11.2136 12.9115L10.7155 12.9557L11.2136 12.9115ZM10.4948 4.82525L10.9928 4.78098L10.4948 4.82525ZM2.81161 4.41379H9.49874V3.41379H2.81161V4.41379ZM9.99677 4.86952L10.7155 12.9557L11.7116 12.8672L10.9928 4.78098L9.99677 4.86952ZM10.2175 13.5H2.09283V14.5H10.2175V13.5ZM1.5948 12.9557L2.31357 4.86952L1.3175 4.78098L0.598723 12.8672L1.5948 12.9557ZM4.18965 5.48276C4.18965 4.21438 4.19706 3.20144 4.46534 2.49414C4.59142 2.16175 4.76539 1.92849 5.00421 1.77168C5.24691 1.61233 5.60537 1.5 6.15517 1.5V0.5C5.47221 0.5 4.9061 0.639821 4.45537 0.935754C4.00077 1.23423 3.71246 1.65937 3.53034 2.13948C3.18225 3.05718 3.18965 4.28563 3.18965 5.48276H4.18965ZM6.15517 1.5C6.70497 1.5 7.06343 1.61233 7.30613 1.77168C7.54495 1.92849 7.71892 2.16175 7.845 2.49414C8.11329 3.20144 8.12069 4.21438 8.12069 5.48276H9.12069C9.12069 4.28563 9.12809 3.05718 8.78 2.13948C8.59788 1.65937 8.30957 1.23423 7.85497 0.935754C7.40424 0.639821 6.83813 0.5 6.15517 0.5V1.5ZM2.09283 13.5C1.79922 13.5 1.5688 13.2482 1.5948 12.9557L0.598723 12.8672C0.520732 13.7446 1.21198 14.5 2.09283 14.5V13.5ZM10.7155 12.9557C10.7415 13.2482 10.5111 13.5 10.2175 13.5V14.5C11.0984 14.5 11.7896 13.7446 11.7116 12.8672L10.7155 12.9557ZM9.49874 4.41379C9.75772 4.41379 9.97384 4.61156 9.99677 4.86952L10.9928 4.78098C10.9241 4.00708 10.2757 3.41379 9.49874 3.41379V4.41379ZM2.81161 3.41379C2.03465 3.41379 1.38629 4.00708 1.3175 4.78098L2.31357 4.86952C2.3365 4.61156 2.55262 4.41379 2.81161 4.41379V3.41379Z" fill="white"/>
</svg>
