<svg width="40" height="40" viewBox="0 0 40 40" fill="none" xmlns="http://www.w3.org/2000/svg">
<g clip-path="url(#clip0_775_10640)">
<path d="M39.5965 27.596L12.4089 0.408411C11.8695 -0.130929 10.9461 -0.130929 10.4068 0.408411L0.404504 10.4107C-0.134835 10.95 -0.134835 11.8735 0.404504 12.4128L27.5839 39.5922C28.1233 40.1316 29.0467 40.1316 29.586 39.5922L39.5883 29.5899C40.1358 29.0261 40.1358 28.1354 39.5965 27.596ZM20.4418 28.2007L11.8042 19.5631L19.551 11.8163L28.1886 20.4539L20.4418 28.2007Z" fill="#A8A8A8"/>
<path d="M0.43732 27.5633C-0.134706 28.1353 -0.134706 29.0261 0.43732 29.5981L10.4069 39.5677C10.9789 40.1397 11.8697 40.1397 12.4417 39.5677L18.8566 33.1528L6.85218 21.1484L0.43732 27.5633Z" fill="#A8A8A8"/>
<path d="M39.5638 12.4451C40.1358 11.8731 40.1358 10.9824 39.5638 10.4103L29.5942 0.440738C29.0221 -0.131288 28.1314 -0.131288 27.5594 0.440738L21.1445 6.8556L33.1489 18.86L39.5638 12.4451Z" fill="#A8A8A8"/>
</g>
<defs>
<clipPath id="clip0_775_10640">
<rect width="40" height="40" fill="white"/>
</clipPath>
</defs>
</svg>
