<svg width="40" height="40" viewBox="0 0 40 40" fill="none" xmlns="http://www.w3.org/2000/svg">
<path d="M20 0C8.96 0 0 8.96 0 20C0 31.04 8.96 40 20 40C31.04 40 40 31.04 40 20C40 8.96 31.04 0 20 0ZM20 36C11.1787 36 4 28.8213 4 20C4 11.1787 11.1787 4 20 4C28.8213 4 36 11.1787 36 20C36 28.8213 28.8213 36 20 36Z" fill="#A8A8A8"/>
<path d="M20 16C22.2091 16 24 14.2091 24 12C24 9.79086 22.2091 8 20 8C17.7909 8 16 9.79086 16 12C16 14.2091 17.7909 16 20 16Z" fill="#A8A8A8"/>
<path d="M20 18.0049C17.792 18.0049 16 19.7969 16 22.0049V27.9995C16 30.2075 17.792 31.9995 20 31.9995C22.208 31.9995 24 30.2075 24 27.9995V21.9942C24 19.7969 22.208 18.0049 20 18.0049Z" fill="#A8A8A8"/>
</svg>
