<svg width="40" height="40" viewBox="0 0 40 40" fill="none" xmlns="http://www.w3.org/2000/svg">
<path d="M28.2337 7.228L26.5806 1.83301H13.4206L11.7681 7.228H28.2337Z" fill="#A8A8A8"/>
<path d="M17.1343 0H22.8674V1.3875H17.1343V0Z" fill="#A8A8A8"/>
<path d="M31.2086 3.0166H27.808L29.3511 8.05473H10.6486L12.1917 3.0166H8.79236C7.42861 3.0166 6.31299 4.13223 6.31299 5.49598V37.521C6.31299 38.8847 7.42924 39.9997 8.79236 39.9997H31.2092C32.573 39.9997 33.6886 38.8847 33.6886 37.521V5.49598C33.6874 4.13223 32.5717 3.0166 31.2086 3.0166V3.0166ZM30.3792 35.7379H9.61924V34.0847H30.3792V35.7379ZM30.3792 31.9154H9.61924V30.2629H30.3792V31.9154ZM30.3792 28.0941H9.61924V26.441H30.3792V28.0941ZM30.3792 24.2729H9.61924V22.6197H30.3792V24.2729ZM30.3792 20.451H9.61924V18.7979H30.3792V20.451ZM30.3792 16.6285H9.61924V14.976H30.3792V16.6285ZM30.3792 12.8072H9.61924V11.1547H30.3792V12.8072Z" fill="#A8A8A8"/>
</svg>
