<svg width="20" height="20" viewBox="0 0 20 20" fill="none" xmlns="http://www.w3.org/2000/svg">
<g clip-path="url(#clip0_19_382)">
<path d="M10 20C15.5137 20 20 15.5141 20 10C20 9.04826 19.8671 8.11035 19.6041 7.21212C19.4745 6.77043 19.0133 6.51672 18.5704 6.64632C18.1283 6.77551 17.8754 7.23836 18.0046 7.68005C18.2225 8.42631 18.3333 9.20715 18.3333 10C18.3333 14.5949 14.5949 18.3333 10 18.3333C5.40507 18.3333 1.66667 14.5949 1.66667 10C1.66667 5.40507 5.40507 1.66667 10 1.66667C11.6699 1.66667 13.2766 2.15495 14.6462 3.07841C15.0275 3.33577 15.5459 3.23466 15.8028 2.85339C16.06 2.47172 15.9597 1.95374 15.578 1.69657C13.9321 0.586751 12.0034 0 10 0C4.48629 0 0 4.48588 0 10C0 15.5141 4.48629 20 10 20Z" fill="white"/>
<path d="M18.578 1.91098L10.0005 10.488L7.25636 7.74431C6.93084 7.419 6.40349 7.419 6.07797 7.74431C5.75266 8.06983 5.75266 8.59718 6.07797 8.9227L9.41131 12.256C9.57427 12.419 9.78708 12.5002 10.0005 12.5002C10.2139 12.5002 10.4267 12.419 10.5897 12.256L19.7564 3.08937C20.0817 2.76384 20.0817 2.2365 19.7564 1.91098C19.4308 1.58566 18.9035 1.58566 18.578 1.91098Z" fill="white"/>
</g>
<defs>
<clipPath id="clip0_19_382">
<rect width="20" height="20" fill="white"/>
</clipPath>
</defs>
</svg>
