<svg width="28" height="28" viewBox="0 0 28 28" fill="none" xmlns="http://www.w3.org/2000/svg">
<path d="M13.9997 2.3335C7.56667 2.3335 2.33301 7.56716 2.33301 14.0002C2.33301 20.4332 7.56667 25.6668 13.9997 25.6668C20.4327 25.6668 25.6663 20.4332 25.6663 14.0002C25.6663 7.56716 20.4327 2.3335 13.9997 2.3335ZM13.9997 23.3335C8.85351 23.3335 4.66634 19.1463 4.66634 14.0002C4.66634 8.854 8.85351 4.66683 13.9997 4.66683C19.1458 4.66683 23.333 8.854 23.333 14.0002C23.333 19.1463 19.1458 23.3335 13.9997 23.3335Z" fill="#699CD0"/>
<path d="M15.1663 8.1665H12.833V14.4828L16.6748 18.3247L18.3245 16.675L15.1663 13.5168V8.1665Z" fill="#699CD0"/>
</svg>
