<svg width="24" height="24" viewBox="0 0 24 24" fill="none" xmlns="http://www.w3.org/2000/svg">
<path d="M20.0625 8.99991C20.063 7.63754 19.7183 6.29726 19.0605 5.1042C18.4028 3.91114 17.4534 2.90421 16.3011 2.17742C15.1488 1.45064 13.8311 1.0277 12.4711 0.948102C11.111 0.868501 9.75301 1.13483 8.52378 1.72223C7.29455 2.30962 6.23421 3.19893 5.44177 4.30711C4.64932 5.41529 4.15061 6.70621 3.99219 8.05934C3.83378 9.41246 4.02083 10.7837 4.53588 12.0449C5.05093 13.3062 5.87719 14.4163 6.9375 15.2718V22.4999C6.93797 22.5952 6.96223 22.6888 7.00807 22.7723C7.05392 22.8558 7.11989 22.9265 7.2 22.978C7.28258 23.0284 7.37641 23.0573 7.473 23.0622C7.56958 23.0671 7.66587 23.0479 7.75313 23.0062L12 20.878L16.2469 23.0062C16.3263 23.0426 16.4126 23.0618 16.5 23.0624C16.6058 23.0621 16.7095 23.0329 16.8 22.978C16.8801 22.9265 16.9461 22.8558 16.9919 22.7723C17.0378 22.6888 17.062 22.5952 17.0625 22.4999V15.2718C17.9993 14.5169 18.755 13.5616 19.2742 12.4763C19.7933 11.3909 20.0627 10.203 20.0625 8.99991ZM5.0625 8.99991C5.0625 7.6278 5.46938 6.2865 6.23168 5.14564C6.99398 4.00477 8.07747 3.11557 9.34513 2.59049C10.6128 2.06541 12.0077 1.92802 13.3534 2.19571C14.6992 2.46339 15.9353 3.12412 16.9056 4.09435C17.8758 5.06458 18.5365 6.30072 18.8042 7.64647C19.0719 8.99221 18.9345 10.3871 18.4094 11.6548C17.8843 12.9224 16.9951 14.0059 15.8543 14.7682C14.7134 15.5305 13.3721 15.9374 12 15.9374C10.1608 15.9349 8.39768 15.2032 7.09719 13.9027C5.79669 12.6022 5.06498 10.8391 5.0625 8.99991ZM15.9375 21.5905L12.2531 19.7437C12.1738 19.7068 12.0874 19.6877 12 19.6877C11.9126 19.6877 11.8262 19.7068 11.7469 19.7437L8.0625 21.5905V16.0312C9.26475 16.7071 10.6208 17.0622 12 17.0622C13.3792 17.0622 14.7352 16.7071 15.9375 16.0312V21.5905ZM12 14.0624C13.0013 14.0624 13.98 13.7655 14.8126 13.2092C15.6451 12.6529 16.294 11.8623 16.6771 10.9372C17.0603 10.0122 17.1606 8.99429 16.9652 8.01226C16.7699 7.03023 16.2877 6.12818 15.5797 5.42018C14.8717 4.71217 13.9697 4.23002 12.9876 4.03468C12.0056 3.83934 10.9877 3.93959 10.0627 4.32276C9.13761 4.70593 8.34696 5.35481 7.79069 6.18733C7.23441 7.01986 6.9375 7.99864 6.9375 8.99991C6.9375 10.3426 7.47087 11.6302 8.42027 12.5796C9.36967 13.529 10.6573 14.0624 12 14.0624ZM12 5.0624C12.7788 5.0624 13.54 5.29333 14.1876 5.72599C14.8351 6.15865 15.3398 6.77361 15.6378 7.49309C15.9358 8.21257 16.0138 9.00427 15.8618 9.76807C15.7099 10.5319 15.3349 11.2335 14.7842 11.7841C14.2336 12.3348 13.532 12.7098 12.7682 12.8617C12.0044 13.0137 11.2127 12.9357 10.4932 12.6377C9.7737 12.3397 9.15875 11.835 8.72609 11.1875C8.29343 10.5399 8.0625 9.77867 8.0625 8.99991C8.0625 7.95562 8.47734 6.9541 9.21577 6.21567C9.95419 5.47725 10.9557 5.0624 12 5.0624Z" fill="white"/>
</svg>
