<svg width="17" height="16" viewBox="0 0 17 16" fill="none" xmlns="http://www.w3.org/2000/svg">
<path d="M5.83801 1.59C4.88559 1.85248 3.93965 2.1379 3.00101 2.446C2.91529 2.47376 2.8391 2.52504 2.78111 2.59399C2.72312 2.66295 2.68567 2.7468 2.67301 2.836C2.11901 6.993 3.39901 10.026 4.92601 12.024C5.57252 12.8784 6.34341 13.6311 7.21301 14.257C7.55901 14.501 7.86501 14.677 8.10601 14.79C8.22601 14.847 8.32401 14.885 8.39901 14.908C8.43181 14.9195 8.46562 14.9279 8.50001 14.933C8.53398 14.9275 8.56743 14.9191 8.60001 14.908C8.67601 14.885 8.77401 14.847 8.89401 14.79C9.13401 14.677 9.44101 14.5 9.78701 14.257C10.6566 13.6311 11.4275 12.8784 12.074 12.024C13.601 10.027 14.881 6.993 14.327 2.836C14.3145 2.74676 14.277 2.66285 14.219 2.59388C14.161 2.52491 14.0848 2.47366 13.999 2.446C13.348 2.233 12.249 1.886 11.162 1.591C10.052 1.29 9.03101 1.067 8.50001 1.067C7.97001 1.067 6.94801 1.29 5.83801 1.591V1.59ZM5.57201 0.56C6.65701 0.265 7.81001 0 8.50001 0C9.19001 0 10.343 0.265 11.428 0.56C12.538 0.86 13.657 1.215 14.315 1.43C14.5901 1.52085 14.834 1.68747 15.0187 1.9107C15.2034 2.13394 15.3213 2.40474 15.359 2.692C15.955 7.169 14.572 10.487 12.894 12.682C12.1824 13.621 11.334 14.4479 10.377 15.135C10.0461 15.3728 9.69549 15.5819 9.32901 15.76C9.04901 15.892 8.74801 16 8.50001 16C8.25201 16 7.95201 15.892 7.67101 15.76C7.30452 15.5819 6.95391 15.3728 6.62301 15.135C5.66603 14.4478 4.81759 13.621 4.10601 12.682C2.42801 10.487 1.04501 7.169 1.64101 2.692C1.67869 2.40474 1.79665 2.13394 1.98132 1.9107C2.166 1.68747 2.4099 1.52085 2.68501 1.43C3.6402 1.11681 4.60281 0.826725 5.57201 0.56Z" fill="#9DA1AA"/>
<path d="M10 6.49995C10.0002 6.81027 9.90407 7.11301 9.72497 7.36644C9.54587 7.61986 9.29258 7.8115 9 7.91495L9.385 9.90495C9.39901 9.97732 9.39684 10.0519 9.37864 10.1233C9.36045 10.1948 9.32668 10.2613 9.27976 10.3182C9.23283 10.375 9.17392 10.4208 9.10723 10.4523C9.04054 10.4837 8.96772 10.5 8.894 10.4999H8.106C8.03236 10.4998 7.95966 10.4834 7.8931 10.4519C7.82653 10.4204 7.76774 10.3746 7.72093 10.3178C7.67412 10.261 7.64044 10.1945 7.6223 10.1231C7.60416 10.0517 7.60201 9.97724 7.616 9.90495L8 7.91495C7.74076 7.82329 7.5117 7.66214 7.33786 7.44911C7.16401 7.23608 7.05206 6.97936 7.01425 6.70701C6.97644 6.43465 7.01422 6.15715 7.12345 5.90481C7.23269 5.65248 7.40919 5.43502 7.63365 5.27621C7.85812 5.1174 8.12192 5.02335 8.39623 5.00433C8.67053 4.9853 8.94479 5.04205 9.18903 5.16835C9.43327 5.29466 9.63809 5.48567 9.78111 5.72051C9.92414 5.95535 9.99986 6.22498 10 6.49995Z" fill="#9DA1AA"/>
</svg>
