<svg width="16" height="16" viewBox="0 0 16 16" fill="none" xmlns="http://www.w3.org/2000/svg">
<path fill-rule="evenodd" clip-rule="evenodd" d="M1.91715 3.85236C0.858797 3.85236 0 2.97575 0 1.91739C0 0.859041 0.858797 0.000244141 1.91715 0.000244141C2.9755 0.000244141 3.8343 0.859041 3.8343 1.91739C3.8343 2.97575 2.9755 3.85236 1.91715 3.85236ZM3.57416 15.9646H0.263697V5.30626H3.57416V15.9646ZM12.661 15.9646H15.9644H15.9679V10.1098C15.9679 7.24479 15.3514 5.039 12.0018 5.039C10.3911 5.039 9.31136 5.92274 8.86949 6.76016H8.82316V5.30626H5.64811V15.9646H8.95501V10.6871C8.95501 9.29735 9.21871 7.95392 10.9399 7.95392C12.6361 7.95392 12.661 9.53967 12.661 10.7762V15.9646Z" fill="#373030"/>
</svg>
