<svg width="666" height="4588" viewBox="0 0 666 4588" fill="none" xmlns="http://www.w3.org/2000/svg">
<path d="M665.129 22.0002C180.629 -68.4998 28.5012 163.739 61.6292 363.501C111.629 665.001 424.136 702 321.129 702C150.629 702 214.353 800.461 164.629 1096C136.65 1262.3 33.1293 1291 46.6292 1356C60.1292 1421 193.625 1348.47 239.129 1430C299.129 1537.5 -14.8708 1732.5 1.62923 1857.5C18.1292 1982.5 106.847 1919.5 114.738 2018C122.629 2116.5 -30.4794 2386 42.1293 2549C114.738 2712 249.204 2637.44 252.129 2731C256.672 2876.28 98.4407 2899.18 95.6293 3044.5C93.722 3143.09 160.081 3183.18 147.629 3281C136.845 3365.72 9.0306 3356.63 6.73797 3442C4.31292 3532.31 122.252 3602.73 112.129 3692.5C103.941 3765.11 29.5377 3778.01 38.7379 3850.5C52.0326 3955.25 313.85 3870.58 335.129 3974C356.118 4076.01 73.3806 3996.58 48.738 4243C30.738 4423 186.738 4587 186.738 4587" stroke="#FFBA3A" stroke-width="2" stroke-dasharray="8 8"/>
</svg>
