<svg width="655" height="4371" viewBox="0 0 655 4371" fill="none" xmlns="http://www.w3.org/2000/svg">
<path d="M654.129 21.9998C169.629 -68.5003 17.5012 163.739 50.6292 363.501C100.629 665 344 574 295 657C237.281 754.768 108 657 187 923C235.01 1084.65 46.5001 1160 60 1225C73.4999 1290 185.496 1282.47 231 1364C291 1471.5 36 1498 6.00001 1632C-24 1766 104.109 1837.5 112 1936C119.891 2034.5 -41.4794 2197 31.1293 2360C103.738 2523 224.959 2433.12 241.129 2542C264 2696 143.821 2671.41 80 2802C31.1293 2902 144.452 3020.18 132 3118C121.216 3202.72 12.2926 3254.63 10 3340C7.57495 3430.3 92.1228 3400.23 82 3490C73.812 3562.61 40.7998 3587.51 50 3660C63.2947 3764.75 235.445 3671.6 290 3762C360 3878 190 3906 82 4078C-2.56284 4212.67 190 4370 190 4370" stroke="#FFBA3A" stroke-width="2" stroke-dasharray="8 8"/>
</svg>
