<svg width="16" height="16" viewBox="0 0 16 16" fill="none" xmlns="http://www.w3.org/2000/svg">
<path fill-rule="evenodd" clip-rule="evenodd" d="M15.9438 4.70135C15.8831 3.41964 15.5904 2.2843 14.6516 1.3489C13.7165 0.413499 12.5814 0.12074 11.2999 0.0564753C9.97925 -0.0184996 6.02075 -0.0184996 4.70006 0.0564753C3.4222 0.117169 2.28712 0.409928 1.34835 1.34533C0.409593 2.28073 0.120468 3.41606 0.0562186 4.69778C-0.0187395 6.01876 -0.0187395 9.97815 0.0562186 11.2991C0.116899 12.5809 0.409593 13.7162 1.34835 14.6516C2.28712 15.587 3.41863 15.8797 4.70006 15.944C6.02075 16.019 9.97925 16.019 11.2999 15.944C12.5814 15.8833 13.7165 15.5906 14.6516 14.6516C15.5868 13.7162 15.8795 12.5809 15.9438 11.2991C16.0187 9.97815 16.0187 6.02234 15.9438 4.70135ZM12.2708 4.68707C12.7991 4.68707 13.2274 4.26221 13.2274 3.73025C13.2274 3.20185 12.7991 2.77342 12.2708 2.77342C11.7426 2.77342 11.3142 3.20185 11.3142 3.73025C11.3142 4.25864 11.739 4.68707 12.2708 4.68707ZM8.00178 3.89805C5.73162 3.89805 3.9005 5.72958 3.9005 8.00025C3.9005 10.2709 5.73162 12.1024 8.00178 12.1024C10.2719 12.1024 12.1031 10.2709 12.1031 8.00025C12.1031 5.72958 10.2719 3.89805 8.00178 3.89805ZM8.00179 10.6672C6.53475 10.6672 5.33541 9.47118 5.33541 8.00024C5.33541 6.52931 6.53118 5.33328 8.00179 5.33328C9.47239 5.33328 10.6682 6.52931 10.6682 8.00024C10.6682 9.47118 9.46882 10.6672 8.00179 10.6672ZM12.717 14.2374C13.4202 13.9554 13.9592 13.4163 14.2376 12.7165C14.5958 11.8162 14.5759 9.84689 14.5629 8.5703C14.5608 8.35854 14.5588 8.16584 14.5588 8.00024C14.5588 7.83462 14.5608 7.64195 14.5629 7.43025C14.5759 6.15434 14.5958 4.18731 14.2376 3.28397C13.9556 2.58063 13.4166 2.04152 12.717 1.76305C11.8141 1.40671 9.83564 1.42569 8.5597 1.43793C8.35271 1.43992 8.16421 1.44173 8.00178 1.44173C7.83619 1.44173 7.64357 1.43977 7.43193 1.43763C6.1563 1.4247 4.1897 1.40477 3.28656 1.76305C2.58338 2.0451 2.04439 2.5842 1.76598 3.28397C1.40972 4.1871 1.4287 6.16598 1.44094 7.4422C1.44292 7.64924 1.44473 7.83778 1.44473 8.00024C1.44473 8.16587 1.44278 8.35854 1.44063 8.57023C1.42771 9.84614 1.40778 11.8132 1.76598 12.7165C2.04796 13.4199 2.58695 13.959 3.28656 14.2374C4.18949 14.5938 6.16793 14.5748 7.44387 14.5626C7.65086 14.5606 7.83936 14.5588 8.00178 14.5588C8.16737 14.5588 8.36 14.5607 8.57164 14.5629C9.84727 14.5758 11.8139 14.5957 12.717 14.2374Z" fill="#373030"/>
</svg>
