<svg width="16" height="16" viewBox="0 0 16 16" fill="none" xmlns="http://www.w3.org/2000/svg">
<path d="M14.3553 4.57474C14.3655 4.71687 14.3655 4.85903 14.3655 5.00115C14.3655 9.33615 11.066 14.3311 5.03553 14.3311C3.17766 14.3311 1.45178 13.793 0 12.859C0.263969 12.8895 0.51775 12.8996 0.791875 12.8996C2.32484 12.8996 3.73603 12.3819 4.86294 11.4986C3.42131 11.4682 2.21319 10.524 1.79694 9.2245C2 9.25493 2.20303 9.27525 2.41625 9.27525C2.71066 9.27525 3.00509 9.23462 3.27919 9.16359C1.77666 8.859 0.649719 7.53921 0.649719 5.94531V5.90471C1.08625 6.14837 1.59391 6.30065 2.13194 6.32093C1.24869 5.73209 0.670031 4.72703 0.670031 3.58996C0.670031 2.98084 0.832438 2.42246 1.11672 1.93515C2.73094 3.92499 5.15734 5.22446 7.87813 5.36662C7.82738 5.12296 7.79691 4.86918 7.79691 4.61537C7.79691 2.80824 9.25884 1.33618 11.0761 1.33618C12.0203 1.33618 12.873 1.73212 13.472 2.37171C14.2131 2.22959 14.9238 1.95546 15.5533 1.57984C15.3096 2.34128 14.7918 2.98087 14.1116 3.38693C14.7715 3.3159 15.4111 3.13312 15.9999 2.87934C15.5533 3.52906 14.9949 4.10771 14.3553 4.57474Z" fill="#373030"/>
</svg>
